<svg width="79" height="144" viewBox="0 0 79 144" fill="none" xmlns="http://www.w3.org/2000/svg">
<g id="CaretRight" opacity="0.8">
<g id="Vector" filter="url(#filter0_b_212_195)">
<path d="M55.2338 73.937L28.9762 100.195C28.7322 100.439 28.4426 100.632 28.1238 100.764C27.8051 100.896 27.4634 100.964 27.1184 100.964C26.7734 100.964 26.4318 100.896 26.113 100.764C25.7943 100.632 25.5047 100.439 25.2607 100.195C25.0167 99.9507 24.8232 99.661 24.6912 99.3423C24.5592 99.0235 24.4912 98.6819 24.4912 98.3369C24.4912 97.9919 24.5592 97.6502 24.6912 97.3315C24.8232 97.0127 25.0167 96.7231 25.2607 96.4792L49.6639 72.0792L25.2607 47.6793C24.768 47.1866 24.4912 46.5183 24.4912 45.8216C24.4912 45.1248 24.768 44.4565 25.2607 43.9638C25.7534 43.4711 26.4217 43.1943 27.1184 43.1943C27.8152 43.1943 28.4835 43.4711 28.9762 43.9638L55.2338 70.2215C55.478 70.4654 55.6716 70.755 55.8038 71.0737C55.9359 71.3925 56.0039 71.7342 56.0039 72.0792C56.0039 72.4243 55.9359 72.766 55.8038 73.0847C55.6716 73.4035 55.478 73.6931 55.2338 73.937Z" fill="white"/>
</g>
</g>
<defs>
<filter id="filter0_b_212_195" x="20.9533" y="39.6565" width="38.5884" height="64.8453" filterUnits="userSpaceOnUse" color-interpolation-filters="sRGB">
<feFlood flood-opacity="0" result="BackgroundImageFix"/>
<feGaussianBlur in="BackgroundImageFix" stdDeviation="1.76894"/>
<feComposite in2="SourceAlpha" operator="in" result="effect1_backgroundBlur_212_195"/>
<feBlend mode="normal" in="SourceGraphic" in2="effect1_backgroundBlur_212_195" result="shape"/>
</filter>
</defs>
</svg>
