<svg width="79" height="144" viewBox="0 0 79 144" fill="none" xmlns="http://www.w3.org/2000/svg">
<g id="CaretRight" opacity="0.8">
<g id="Vector" filter="url(#filter0_b_212_177)">
<path d="M23.7667 73.937L50.0243 100.195C50.2683 100.439 50.5579 100.632 50.8767 100.764C51.1954 100.896 51.537 100.964 51.8821 100.964C52.2271 100.964 52.5687 100.896 52.8874 100.764C53.2062 100.632 53.4958 100.439 53.7398 100.195C53.9837 99.9507 54.1773 99.661 54.3093 99.3423C54.4413 99.0235 54.5093 98.6819 54.5093 98.3369C54.5093 97.9919 54.4413 97.6502 54.3093 97.3315C54.1773 97.0127 53.9837 96.7231 53.7398 96.4792L29.3366 72.0792L53.7398 47.6793C54.2325 47.1866 54.5093 46.5183 54.5093 45.8216C54.5093 45.1248 54.2325 44.4565 53.7398 43.9638C53.2471 43.4711 52.5788 43.1943 51.8821 43.1943C51.1853 43.1943 50.517 43.4711 50.0243 43.9638L23.7667 70.2215C23.5225 70.4654 23.3288 70.755 23.1967 71.0737C23.0646 71.3925 22.9966 71.7342 22.9966 72.0792C22.9966 72.4243 23.0646 72.766 23.1967 73.0847C23.3288 73.4035 23.5225 73.6931 23.7667 73.937Z" fill="white"/>
</g>
</g>
<defs>
<filter id="filter0_b_212_177" x="19.4587" y="39.6565" width="38.5884" height="64.8453" filterUnits="userSpaceOnUse" color-interpolation-filters="sRGB">
<feFlood flood-opacity="0" result="BackgroundImageFix"/>
<feGaussianBlur in="BackgroundImageFix" stdDeviation="1.76894"/>
<feComposite in2="SourceAlpha" operator="in" result="effect1_backgroundBlur_212_177"/>
<feBlend mode="normal" in="SourceGraphic" in2="effect1_backgroundBlur_212_177" result="shape"/>
</filter>
</defs>
</svg>
