<svg width="266" height="42" viewBox="0 0 266 42" fill="none" xmlns="http://www.w3.org/2000/svg">
<path d="M9 33V29H17V9H9V5H33V9H25V29H33V33H9ZM37 33V13H61V17H65V33H57V17H45V33H37ZM69 33V13H93V17H97V33H89V17H77V33H69ZM105 33V29H101V17H105V13H125V17H129V29H125V33H105ZM109 29H121V17H109V29ZM137 33V29H133V17H137V13H161V17H141V29H161V33H137ZM169 33V29H165V17H169V13H189V17H193V25H173V29H189V33H169ZM173 21H185V17H173V21ZM197 33V13H221V17H225V33H217V17H205V33H197ZM241 33V17H233V13H241V5H249V13H257V17H249V33H241Z" fill="white"/>
</svg>
