<?xml version="1.0" encoding="UTF-8"?>
<svg version="1.1" xmlns="http://www.w3.org/2000/svg" width="512" height="512">
<path d="M0 0 C3.18784876 1.42805826 5.36108526 3.76185096 7.77521896 6.21705723 C8.32991623 6.76919122 8.8846135 7.32132522 9.45611978 7.89019054 C11.31653994 9.74566179 13.16602197 11.6116666 15.01575851 13.47778416 C16.34573655 14.80860823 17.67637517 16.13877242 19.00762558 17.46832371 C22.62352642 21.08336223 26.23008969 24.70758967 29.83508205 28.33350205 C33.60270096 32.11984833 37.37879178 35.89772592 41.15400314 39.67649937 C48.30329573 46.835124 55.44490528 54.00136307 62.58380532 61.17035002 C70.71084319 69.33089579 78.84638011 77.48294575 86.98265219 85.63428319 C103.72095426 102.40396054 120.44852197 119.18431133 137.16907883 135.97168064 C135.56966293 139.9219313 132.83621958 142.59267124 129.86832809 145.54658604 C129.32224549 146.09790532 128.77616289 146.6492246 128.21353233 147.21725053 C126.38201782 149.06376988 124.54342062 150.90306749 122.70472336 152.74243259 C121.3903436 154.06443319 120.07636821 155.38683594 118.76276779 156.70961094 C115.19335419 160.30097641 111.61738216 163.88574075 108.03951883 167.46868634 C105.80622673 169.70561942 103.57423903 171.94384566 101.34268951 174.18251705 C93.56283775 181.98686004 85.77728488 189.78546861 77.98694992 197.57934666 C70.7155432 204.8543944 63.45738958 212.142485 56.20510781 219.43659335 C49.98374312 225.69258301 43.75285968 231.93898394 37.51450813 238.17803448 C33.78606677 241.90727093 30.06175824 245.6404258 26.34712219 249.38341808 C22.8565592 252.90002994 19.35437428 256.4046256 15.84271622 259.90016842 C14.55318748 261.18787248 13.26795594 262.47989574 11.98728943 263.77641392 C10.24405374 265.53991108 8.48627218 267.28745656 6.72379684 269.03169346 C6.21542538 269.55326489 5.70705391 270.07483633 5.18327725 270.61221296 C3.74841118 272.01317406 3.74841118 272.01317406 1.16907883 273.97168064 C-2.06864238 273.80294035 -3.62194066 272.5516927 -5.85533524 270.28784275 C-6.41561417 269.72733723 -6.9758931 269.1668317 -7.55315018 268.58934116 C-8.14497086 267.98203663 -8.73679153 267.37473209 -9.34654617 266.74902439 C-9.96237564 266.12895008 -10.57820511 265.50887577 -11.21269608 264.87001133 C-13.17592752 262.89000159 -15.12846553 260.89981145 -17.08092117 258.90918064 C-18.41095865 257.5640953 -19.74167996 256.21968576 -21.07310867 254.87597752 C-24.33369655 251.58233158 -27.58473305 248.27951725 -30.83092117 244.97168064 C-29.33723602 241.49138943 -27.351747 239.24549716 -24.68013382 236.58038425 C-23.81072662 235.70822773 -22.94131943 234.83607121 -22.04556656 233.93748569 C-21.08006754 232.97906434 -20.1144729 232.02073931 -19.14879227 231.06250095 C-18.13330223 230.0475752 -17.11825265 229.03220857 -16.10361099 228.01643467 C-13.35001328 225.2622631 -10.59029234 222.51430185 -7.82943678 219.76740837 C-4.9444102 216.89488364 -2.06504576 214.01669478 0.81492233 211.13910007 C6.2684576 205.69178117 11.72707112 200.24958062 17.1875242 194.80919719 C23.40421223 188.61486326 29.61522271 182.41484988 35.82576108 176.21435118 C48.6005566 163.4604612 61.38247021 150.71372664 74.16907883 137.97168064 C72.67539368 134.49138943 70.68990465 132.24549716 68.01829147 129.58038425 C67.14888428 128.70822773 66.27947708 127.83607121 65.38372421 126.93748569 C64.4182252 125.97906434 63.45263056 125.02073931 62.48694992 124.06250095 C61.47145988 123.0475752 60.45641031 122.03220857 59.44176865 121.01643467 C56.68817093 118.2622631 53.92845 115.51430185 51.16759443 112.76740837 C48.28256785 109.89488364 45.40320341 107.01669478 42.52323532 104.13910007 C37.06970005 98.69178117 31.61108653 93.24958062 26.15063345 87.80919719 C19.93394543 81.61486326 13.72293494 75.41484988 7.51239657 69.21435118 C-5.26239895 56.4604612 -18.04431256 43.71372664 -30.83092117 30.97168064 C-28.91119039 26.79654512 -26.07258206 23.87249956 -22.86998367 20.63964939 C-22.28300705 20.04364429 -21.69603043 19.4476392 -21.09126663 18.83357334 C-19.85162273 17.57945324 -18.60917509 16.32809913 -17.3641243 15.07934666 C-15.45730571 13.16057386 -13.56993323 11.22393824 -11.68248367 9.28613377 C-10.47530247 8.06949472 -9.26700644 6.8539606 -8.05748367 5.63964939 C-7.49381088 5.05644428 -6.93013809 4.47323917 -6.34938431 3.87236118 C-2.39495568 -0.03704343 -2.39495568 -0.03704343 0 0 Z " fill="#221E1F" transform="translate(202.8309211730957,119.02831935882568)"/>
</svg>
