<?xml version="1.0" encoding="UTF-8"?>
<svg version="1.1" xmlns="http://www.w3.org/2000/svg" width="512" height="512">
<path d="M0 0 C1.95181624 0.98487497 3.23796524 2.00981798 4.77374458 3.56653976 C5.33402351 4.12704529 5.89430244 4.68755081 6.47155952 5.26504135 C7.0633802 5.87234589 7.65520088 6.47965042 8.26495552 7.10535812 C8.88078499 7.72543243 9.49661446 8.34550674 10.13110542 8.98437119 C12.09433687 10.96438092 14.04687488 12.95457107 15.99933052 14.94520187 C17.329368 16.29028722 18.66008931 17.63469675 19.99151802 18.978405 C23.25210589 22.27205093 26.5031424 25.57486526 29.74933052 28.88270187 C28.25564537 32.36299308 26.27015635 34.60888536 23.59854317 37.27399826 C22.72913597 38.14615479 21.85972878 39.01831131 20.96397591 39.91689682 C19.99847689 40.87531817 19.03288225 41.8336432 18.06720161 42.79188156 C17.05171158 43.80680732 16.036662 44.82217395 15.02202034 45.83794785 C12.26842262 48.59211941 9.50870169 51.34008066 6.74784613 54.08697414 C3.86281955 56.95949888 0.9834551 59.83768774 -1.89651299 62.71528244 C-7.35004826 68.16260135 -12.80866177 73.60480189 -18.26911485 79.04518533 C-24.48580288 85.23951925 -30.69681336 91.43953263 -36.90735173 97.64003134 C-49.68214726 110.39392132 -62.46406087 123.14065587 -75.25066948 135.88270187 C-73.75698433 139.36299308 -71.7714953 141.60888536 -69.09988213 144.27399826 C-68.23047493 145.14615479 -67.36106773 146.01831131 -66.46531487 146.91689682 C-65.49981585 147.87531817 -64.53422121 148.8336432 -63.56854057 149.79188156 C-62.55305053 150.80680732 -61.53800096 151.82217395 -60.5233593 152.83794785 C-57.76976158 155.59211941 -55.01004065 158.34008066 -52.24918509 161.08697414 C-49.36415851 163.95949888 -46.48479406 166.83768774 -43.60482597 169.71528244 C-38.1512907 175.16260135 -32.69267719 180.60480189 -27.23222411 186.04518533 C-21.01553608 192.23951925 -14.80452559 198.43953263 -8.59398723 204.64003134 C4.1808083 217.39392132 16.96272191 230.14065587 29.74933052 242.88270187 C27.82959974 247.05783739 24.99099141 249.98188296 21.78839302 253.21473312 C21.2014164 253.81073822 20.61443977 254.40674332 20.00967598 255.02080917 C18.77003208 256.27492927 17.52758444 257.52628339 16.28253365 258.77503586 C14.37571506 260.69380865 12.48834258 262.63044427 10.60089302 264.56824875 C9.39371182 265.7848878 8.18541578 267.00042191 6.97589302 268.21473312 C6.41222023 268.79793823 5.84854744 269.38114334 5.26779366 269.98202133 C3.65020943 271.5811882 3.65020943 271.5811882 0.74933052 273.88270187 C-3.52811487 273.81654146 -6.04885302 270.4930547 -8.85680962 267.63732529 C-9.41150688 267.08519129 -9.96620415 266.5330573 -10.53771043 265.96419197 C-12.39813059 264.10872073 -14.24761262 262.24271592 -16.09734917 260.37659836 C-17.42732721 259.04577429 -18.75796582 257.7156101 -20.08921623 256.38605881 C-23.70511707 252.77102028 -27.31168034 249.14679285 -30.91667271 245.52088046 C-34.68429161 241.73453419 -38.46038244 237.9566566 -42.2355938 234.17788315 C-49.38488639 227.01925852 -56.52649593 219.85301944 -63.66539598 212.6840325 C-71.79243384 204.52348673 -79.92797076 196.37143677 -88.06424284 188.22009933 C-104.80254491 171.45042198 -121.53011262 154.67007119 -138.25066948 137.88270187 C-136.65125358 133.93245122 -133.91781024 131.26171128 -130.94991875 128.30779648 C-130.40383614 127.7564772 -129.85775354 127.20515792 -129.29512298 126.63713199 C-127.46360847 124.79061264 -125.62501128 122.95131503 -123.78631401 121.11194992 C-122.47193425 119.78994932 -121.15795886 118.46754657 -119.84435844 117.14477158 C-116.27494484 113.55340611 -112.69897282 109.96864176 -109.12110949 106.38569617 C-106.88781738 104.14876309 -104.65582968 101.91053686 -102.42428017 99.67186546 C-94.6444284 91.86752248 -86.85887553 84.06891391 -79.06854057 76.27503586 C-71.79713385 68.99998811 -64.53898023 61.71189752 -57.28669846 54.41778916 C-51.06533377 48.1617995 -44.83445034 41.91539858 -38.59609878 35.67634803 C-34.86765743 31.94711158 -31.14334889 28.21395671 -27.42871284 24.47096443 C-23.93814985 20.95435258 -20.43596493 17.44975692 -16.92430687 13.9542141 C-15.63477814 12.66651004 -14.34954659 11.37448678 -13.06888008 10.0779686 C-11.32564439 8.31447143 -9.56786284 6.56692596 -7.8053875 4.82268906 C-7.0428303 4.04033191 -7.0428303 4.04033191 -6.2648679 3.24216956 C-2.79503946 -0.14566905 -2.79503946 -0.14566905 0 0 Z " fill="#231F20" transform="translate(310.2506694793701,119.1172981262207)"/>
</svg>
